<svg xmlns="http://www.w3.org/2000/svg" id="Layer_1" data-name="Layer 1" viewBox="0 0 30 30"><defs><style>.cls-1 {
        fill: #72ccd2;
      }

      .cls-2 {
        fill: #009faf;
      }
</style></defs><g><path class="cls-1" d="M21,19.21c.28,.07,.59,.15,.9,.21-.31-.06-.62-.14-.9-.21-.08,.08-.15,.16-.23,.23,.08-.07,.16-.15,.23-.23Z"></path><path class="cls-1" d="M20.5,19.66c.08-.06,.15-.12,.23-.19-.07,.07-.15,.13-.23,.19Z"></path><path class="cls-1" d="M14.82,21.05c.07-.01,.15-.03,.22-.04-.07,.02-.15,.03-.22,.04Z"></path><path class="cls-1" d="M16.46,19.99h0c.09,.02,.19,.05,.28,.07-.09-.02-.19-.05-.28-.07Z"></path><path class="cls-1" d="M20.23,19.85c.08-.05,.15-.1,.23-.16-.08,.06-.15,.11-.23,.16Z"></path><path class="cls-1" d="M19.13,20.26c.08-.01,.16-.03,.25-.05-.08,.02-.16,.04-.25,.05Z"></path><path class="cls-1" d="M15.07,20.99c.07-.02,.14-.04,.22-.07-.07,.03-.14,.05-.22,.07Z"></path><path class="cls-1" d="M18.84,20.3c.08,0,.17-.02,.25-.03-.08,.01-.17,.02-.25,.03Z"></path><path class="cls-1" d="M19.42,20.2c.08-.02,.16-.05,.24-.08-.08,.03-.16,.05-.24,.08Z"></path><path class="cls-1" d="M19.95,20c.08-.04,.16-.08,.24-.13-.08,.05-.16,.09-.24,.13Z"></path><path class="cls-1" d="M19.7,20.11c.08-.03,.17-.07,.25-.1-.08,.04-.17,.07-.25,.1Z"></path><path class="cls-1" d="M13.85,21.01s.1,.02,.14,.03c-.05,0-.1-.02-.14-.03Z"></path><path class="cls-1" d="M14.53,21.07c-.05,0-.11,0-.16,0,.03,0,.06,0,.09,0,.02,0,.05,0,.07,0Z"></path><path class="cls-1" d="M15.32,20.91c.07-.03,.14-.06,.21-.1-.07,.04-.14,.07-.21,.1Z"></path><path class="cls-1" d="M14.11,21.05s.09,.01,.14,.01c-.05,0-.09,0-.14-.01Z"></path><path class="cls-1" d="M14.56,21.07c.08,0,.15,0,.22-.02-.07,.01-.15,.02-.22,.02Z"></path><path class="cls-1" d="M13.39,20.89s0,0,0,0c.03,0,.05,.02,.08,.02-.03,0-.05-.02-.08-.03Z"></path><path class="cls-1" d="M18.57,20.31c.09,0,.17,0,.26-.01-.09,0-.17,.01-.26,.01Z"></path><path class="cls-1" d="M15.79,20.64c.07-.05,.14-.11,.21-.17-.07,.06-.14,.12-.21,.17Z"></path><path class="cls-1" d="M15.56,20.79c.07-.04,.14-.08,.21-.13-.07,.05-.14,.09-.21,.13Z"></path><path class="cls-1" d="M13.58,20.94s.1,.03,.15,.04c-.05-.01-.1-.03-.15-.04Z"></path><path class="cls-1" d="M16.25,20.24c.07-.08,.14-.16,.21-.25-.07,.09-.14,.17-.21,.25Z"></path><path class="cls-1" d="M16.23,20.25c-.07,.07-.14,.14-.21,.21,.07-.06,.14-.13,.21-.21Z"></path><path class="cls-1" d="M17.41,20.2c.06,.01,.12,.02,.18,.03-.06,0-.12-.02-.18-.03Z"></path><path class="cls-1" d="M23.41,19.34c.05-.02,.1-.03,.15-.05-.05,.02-.1,.03-.15,.05Z"></path><path class="cls-1" d="M23.9,19.15c.05-.03,.1-.05,.15-.08-.05,.03-.1,.06-.15,.08Z"></path><path class="cls-1" d="M23.66,19.26s.1-.04,.15-.06c-.05,.02-.1,.04-.15,.06Z"></path><path class="cls-1" d="M24.13,19.02c.06-.04,.12-.08,.19-.13-.06,.04-.12,.09-.19,.13Z"></path><path class="cls-1" d="M24.34,18.88c.07-.05,.13-.11,.2-.17-.06,.06-.13,.11-.2,.17Z"></path><path class="cls-1" d="M24.72,18.53s-.09,.09-.13,.13c.04-.04,.09-.09,.13-.13Z"></path><path class="cls-1" d="M28.24,22.65c.96-1.05,1.53-2.33,1.53-3.71,0-2.15-1.37-4.06-3.48-5.23,.29,1.21,.26,2.46-.11,3.74-.49,1.7-1.93,2.81-3.67,2.81-.25,0-.5-.02-.76-.07-.18-.03-.36-.07-.53-.11-.77,.69-1.67,1.02-2.74,1.02-.59,0-1.18-.1-1.76-.24-.65,.66-1.41,.99-2.28,.99-.19,0-.38-.02-.58-.05,1.37,2.12,4.22,3.58,7.51,3.58,1.65,0,3.19-.38,4.49-1.01,.88,.51,2.1,1.01,3.58,1.01,.13,0,.24-.07,.29-.19,.05-.12,.03-.26-.06-.35-.01-.01-.9-.98-1.44-2.2Z"></path><path class="cls-1" d="M22.21,19.46s.07,0,.1,0c-.03,0-.07,0-.1,0Z"></path><path class="cls-1" d="M18.53,20.31c-.08,0-.16,0-.24,0,.07,0,.14,0,.21,0,.01,0,.02,0,.03,0Z"></path><path class="cls-1" d="M22.86,19.45c.07,0,.13-.01,.2-.03-.06,.01-.13,.02-.2,.03Z"></path><path class="cls-1" d="M22.79,19.46c-.09,0-.18,.01-.27,.01,0,0,0,0,0,0,.09,0,.18,0,.27-.01Z"></path><path class="cls-1" d="M23.15,19.41c.06-.01,.11-.02,.16-.04-.05,.01-.11,.03-.16,.04Z"></path><path class="cls-1" d="M16.83,20.08c.07,.02,.13,.03,.2,.05-.07-.01-.13-.03-.2-.05Z"></path><path class="cls-1" d="M17.13,20.15c.06,.01,.12,.03,.18,.04-.06-.01-.12-.02-.18-.04Z"></path><path class="cls-1" d="M17.7,20.25c.06,0,.13,.02,.19,.03-.06,0-.13-.02-.19-.03Z"></path><path class="cls-1" d="M17.97,20.29c.09,0,.18,.02,.27,.02-.09,0-.18-.01-.27-.02Z"></path><path class="cls-1" d="M25.71,15.38c0-.3-.02-.59-.06-.88,.04,.29,.06,.58,.06,.88Z"></path><path class="cls-1" d="M24.79,18.45s.07-.08,.11-.13c-.03,.04-.07,.09-.11,.13Z"></path><path class="cls-1" d="M24.95,18.24s.06-.09,.09-.14c-.03,.05-.06,.09-.09,.14Z"></path><path class="cls-1" d="M25.1,18.01s.06-.1,.08-.15c-.03,.05-.05,.1-.08,.15Z"></path><path class="cls-1" d="M25.34,17.51c.03-.09,.07-.18,.09-.27,.18-.64,.27-1.26,.28-1.86,0,.6-.09,1.21-.28,1.86-.03,.09-.06,.19-.09,.28Z"></path><path class="cls-1" d="M25.23,17.77c.03-.06,.05-.12,.08-.18-.02,.06-.05,.12-.08,.18Z"></path></g><path class="cls-2" d="M1.76,17.37s.05,.08,.04,.12c-.22,1.17,.33,2.01,1.17,2.67,1.13,.88,2.42,1.38,3.94,1.44,.06,0,.11,.04,.12,.1,.1,.56-.06,1.41-.72,1.98-.19,.16-.08,.48,.17,.47,.81-.01,2.02-.36,3.18-1.24,1.35-1.02,1.48-1.32,2.67-2.38,.04-.03,.09-.04,.14-.02,1.44,.69,2.8,.95,3.94-.46,.03-.04,.08-.06,.13-.04,1.57,.4,3.1,.63,4.41-.75,.03-.03,.08-.05,.12-.04,.26,.06,.54,.14,.83,.19,1.64,.29,3.07-.58,3.54-2.19,.74-2.56-.04-4.76-1.75-6.66-.6-.66-1.4-1.15-2.11-1.72-.25-.2-.55-.37-.71-.63-1.02-1.56-2.52-2.41-4.24-2.94-1.64-.51-3.3-.55-4.97-.21-.02,0-.05,0-.07,0-3.19-1.24-6.61,.16-7.88,2.52-.01,.02-.03,.04-.06,.05-1.79,.74-2.53,2.14-2.53,4.03,0,.02,0,.05-.02,.07C-.31,13.77,.05,15.99,1.76,17.37Zm1.59,.48c.21-.55,1.61-.76,3.87-.1,1.2,.35,2.57,1.05,3.34,1.48,.24,.13,.21,.49-.05,.58-.71,.23-1.76,.58-2.17,.68-.63,.15-1.59,.01-3.12-.57-1.53-.58-2.29-.96-1.88-2.07Zm-1.16-4.43c.47,.25,.96,.47,1.52,.32,.18-.05,.32-.21,.34-.4l.03-.32c.02-.19-.08-.38-.25-.47-.22-.12-.43-.22-.62-.34-.49-.32-.65-.8-.55-1.36,.19-1.1,1.22-1.89,2.33-1.8,.97,.08,1.86,.4,2.54,1.11,.37,.39,.69,.84,1.04,1.31,.12,.16,.32,.22,.51,.17l.21-.06c.16-.05,.27-.23,.22-.41-.11-.42-.21-.81-.31-1.2-.01-.05,0-.1,.04-.13,.58-.46,1.06-.96,1.09-1.71,.01-.21-.12-.4-.31-.47h-.04c-.19-.08-.4-.01-.53,.15-.36,.47-.75,.84-1.3,.83-.02,0-.04,0-.06-.01-.76-.36-1.44-.69-2.15-1.02-.08-.04-.1-.14-.04-.2,.57-.6,1.27-.93,2.04-1.14,1.74-.47,3.56,.15,4.53,1.52,.63,.9,.6,2.1-.03,3-.09,.13-.19,.27-.3,.41-.13,.17-.12,.4,0,.57l.11,.15c.17,.22,.45,.26,.65,.12,.57-.38,.96-.89,1.3-1.47,.03-.05,.1-.08,.15-.05,.94,.36,1.86,.55,2.69-.1,.21-.16,.23-.48,.05-.67l-.08-.09c-.08-.09-.19-.13-.3-.11-.26,.03-.5,.08-.73,.06-.63-.06-1.24-.23-1.55-.86-.19-.38-.27-.8-.44-1.19-.15-.33-.35-.65-.57-1.01-.05-.09,.01-.19,.11-.19,.45,.02,.84,.02,1.22,.08,1.64,.25,3.16,.79,4.37,1.98,1.15,1.14,1.14,2.89-.03,4.01-.26,.25-.58,.43-.9,.63-.18,.11-.26,.33-.2,.53l.06,.21c.07,.24,.32,.39,.57,.32l1.04-.27c.06-.01,.11,.01,.14,.06,.1,.18,.2,.35,.3,.54s.34,.28,.55,.22h.04c.22-.08,.36-.3,.33-.52-.04-.31-.08-.59-.11-.86-.03-.35,.03-.91,.13-1.25,.11-.38,.25-.75,.38-1.15,.02-.07,.11-.11,.18-.07,.56,.31,.95,.81,1.34,1.28,.93,1.13,1.34,2.45,1.26,3.9-.09,1.61-1.08,2.32-2.61,1.91-.03,0-.05-.02-.07-.04-.34-.41-.69-.83-1.03-1.25-.13-.15-.34-.21-.53-.14h0c-.19,.08-.31,.26-.3,.47,.01,.23,.02,.41,.03,.58,0,.27,.01,.53,.02,.76,0,.04-.01,.07-.04,.1-.79,.73-1.36,.78-2.5,.22-.04-.02-.07-.06-.07-.11-.03-1.13-.36-2.15-1.19-2.97-.02-.02-.03-.04-.04-.07-.09-.62-.17-1.23-.26-1.88-.03-.21-.19-.37-.4-.4h0c-.24-.04-.47,.12-.52,.36l-.25,1.08c-.02,.07-.08,.11-.15,.09l-3.55-.83c-.22-.05-.44,.06-.53,.26l-.11,.24c-.08,.17,0,.38,.18,.45,.35,.15,.66,.3,.99,.39,.66,.19,1.33,.3,2,.47,.92,.23,1.66,.73,2.14,1.58,.52,.92,.21,1.83-.78,2.23-.17,.07-.36,.07-.6,.1-.03,0-.06,0-.08-.01-1.03-.57-2.06-1.22-3.17-1.73-1.09-.5-2.24-.87-3.37-1.29-.08-.03-.1-.12-.06-.19,.59-.93,.72-1.96,.45-3.09-.06-.24-.3-.39-.54-.35-.11,.02-.21,.04-.32,.06-.22,.04-.38,.24-.38,.46,0,.13,0,.25,0,.37,0,1.68-1.19,2.83-2.86,2.73-1.43-.08-2.32-1.66-1.69-3,.03-.06,.11-.09,.17-.05Z"></path></svg>